{"title":"Community.720p.1080p.WEB-DL.DD5.1.H.264","uid":10205493,"size":70396389889,"categoryP":"video","categoryS":"hd___tv_shows","magnet":"?xt=urn:btih:72485ac09ea5dc59830e0a876d5736e47ff08c72&amp;dn=Community.720p.1080p.WEB-DL.DD5.1.H.264&amp;tr=udp%3A%2F%2Ftracker.openbittorrent.com%3A80&amp;tr=udp%3A%2F%2Fopen.demonii.com%3A1337&amp;tr=udp%3A%2F%2Ftracker.coppersurfer.tk%3A6969&amp;tr=udp%3A%2F%2Fexodus.desync.com%3A6969","seeders":1,"leechers":0,"uploader":"cfiggis","files":-1,"time":1400842897,"description":"Details:\n\n-  This is a 1080p series pack - where available. S01-03 were only available in 720p.\n\n- This is a compilation of various scene releases. The first couple of seasons were only available in 720p; however, S04 and S05 are at 1080p. ENG subtitles are included when available. \n\n-  The only quirk is that the S04 episodes (untouched) have a metadata title of &quot;Community.S02E19.720p.HDTV.X264.DIMENSION.mkv 17713&quot;; the file names ARE correct, though.\n\n\nMediaInfo:\nGeneral\nFormat : Matroska\nFormat version : Version 4 / Version 2\nFile size : 827 MiB\nOverall bit rate : 5 390 Kbps\nEncoded date : UTC 2014-05-15 01:49:03\nWriting application : mkvmerge v6.2.0 ('Promised Land') built on Apr 28 2013 18:50:30\nWriting library : libebml v1.3.0 + libmatroska v1.4.0\n\nVideo\nID : 1\nFormat : AVC\nFormat/Info : Advanced Video Codec\nFormat profile : &lt;a class=&quot;__cf_email__&quot; href=&quot;/cdn-cgi/l/email-protection&quot; data-cfemail=&quot;1951707e7159552d3729&quot;&gt;[email&amp;#160;protected]&lt;/a&gt;&lt;script data-cfhash='f9e31' type=&quot;text/javascript&quot;&gt;\n/* &lt;![CDATA[ */!function(){try{var t=&quot;currentScript&quot;in document?document.currentScript:function(){for(var t=document.getElementsByTagName(&quot;script&quot;),e=t.length;e--;)if(t[e].getAttribute(&quot;data-cfhash&quot;))return t[e]}();if(t&amp;&amp;t.previousSibling){var e,r,n,i,c=t.previousSibling,a=c.getAttribute(&quot;data-cfemail&quot;);if(a){for(e=&quot;&quot;,r=parseInt(a.substr(0,2),16),n=2;a.length-n;n+=2)i=parseInt(a.substr(n,2),16)^r,e+=String.fromCharCode(i);e=document.createTextNode(e),c.parentNode.replaceChild(e,c)}t.parentNode.removeChild(t);}}catch(u){}}()/* ]]&gt; */&lt;/script&gt;\nFormat settings, CABAC : Yes\nFormat settings, ReFrames : 4 frames\nCodec ID : V_MPEG4/ISO/AVC\nBit rate : 4 899 Kbps\nWidth : 1 920 pixels\nHeight : 1 080 pixels\nDisplay aspect ratio : 16:9\nFrame rate mode : Constant\nFrame rate : 23.976 fps\nColor space : YUV\nChroma subsampling : 4:2:0\nBit depth : 8 bits\nScan type : Progressive\nBits/(Pixel*Frame) : 0.099\nStream size : 752 MiB (91%)\nLanguage : English\nDefault : Yes\nForced : No\nColor primaries : BT.709\nTransfer characteristics : BT.709\nMatrix coefficients : BT.709\n\nAudio\nID : 2\nFormat : AC-3\nFormat/Info : Audio Coding 3\nMode extension : CM (complete main)\nFormat settings, Endianness : Big\nCodec ID : A_AC3\nDuration : 21mn 27s\nBit rate mode : Constant\nBit rate : 384 Kbps\nChannel(s) : 6 channels\nChannel positions : Front: L C R, Side: L R, LFE\nSampling rate : 48.0 KHz\nBit depth : 16 bits\nCompression mode : Lossy\nStream size : 58.9 MiB (7%)\nLanguage : English\nDefault : Yes\nForced : No\n\nText\nID : 3\nFormat : UTF-8\nCodec ID : S_TEXT/UTF8\nCodec ID/Info : UTF-8 Plain Text\nDefault : Yes\nForced : No","torrent":{"xt":"urn:btih:72485ac09ea5dc59830e0a876d5736e47ff08c72","amp;dn":"Community.720p.1080p.WEB-DL.DD5.1.H.264","amp;tr":["udp%3A%2F%2Ftracker.openbittorrent.com%3A80","udp%3A%2F%2Fopen.demonii.com%3A1337","udp%3A%2F%2Ftracker.coppersurfer.tk%3A6969","udp%3A%2F%2Fexodus.desync.com%3A6969"],"infoHash":"72485ac09ea5dc59830e0a876d5736e47ff08c72","infoHashBuffer":{"type":"Buffer","data":[114,72,90,192,158,165,220,89,131,14,10,135,109,87,54,228,127,240,140,114]},"announce":[],"urlList":[]}}